<svg width="9" height="16" viewBox="0 0 9 16" fill="none" xmlns="http://www.w3.org/2000/svg">
<path d="M7.41542 6.15385C7.57863 6.15385 7.73516 6.08901 7.85057 5.9736C7.96597 5.8582 8.03081 5.70167 8.03081 5.53846V5.03003C8.02905 4.20552 7.70728 3.41389 7.1333 2.82198C6.55931 2.23006 5.77795 1.88409 4.95389 1.85698V0.615385C4.95389 0.452174 4.88905 0.295649 4.77364 0.180242C4.65824 0.064835 4.50171 0 4.3385 0C4.17529 0 4.01877 0.064835 3.90336 0.180242C3.78795 0.295649 3.72312 0.452174 3.72312 0.615385V1.85698C2.99318 1.88024 2.29352 2.15417 1.74182 2.63268C1.19012 3.1112 0.820039 3.76511 0.693826 4.48443C0.567613 5.20374 0.692967 5.94458 1.0488 6.58234C1.40464 7.22009 1.96925 7.71584 2.64767 7.98622L5.57229 9.15662C5.99369 9.32522 6.34321 9.63532 6.5608 10.0336C6.77839 10.432 6.85047 10.8936 6.76463 11.3393C6.6788 11.785 6.44043 12.1869 6.09047 12.4759C5.7405 12.7649 5.30081 12.923 4.84693 12.9231H3.83007C3.31225 12.9225 2.81581 12.7165 2.44966 12.3504C2.08351 11.9842 1.87755 11.4878 1.87696 10.97V10.4615C1.87696 10.2983 1.81213 10.1418 1.69672 10.0264C1.58131 9.91099 1.42479 9.84615 1.26158 9.84615C1.09837 9.84615 0.941842 9.91099 0.826435 10.0264C0.711028 10.1418 0.646193 10.2983 0.646193 10.4615V10.97C0.647948 11.7945 0.969724 12.5861 1.54371 13.178C2.11769 13.7699 2.89905 14.1159 3.72312 14.143V15.3846C3.72312 15.5478 3.78795 15.7044 3.90336 15.8198C4.01877 15.9352 4.17529 16 4.3385 16C4.50171 16 4.65824 15.9352 4.77364 15.8198C4.88905 15.7044 4.95389 15.5478 4.95389 15.3846V14.143C5.68382 14.1198 6.38348 13.8458 6.93518 13.3673C7.48688 12.8888 7.85696 12.2349 7.98318 11.5156C8.10939 10.7963 7.98403 10.0554 7.6282 9.41766C7.27236 8.77991 6.70775 8.28416 6.02933 8.01378L3.10472 6.84338C2.68332 6.67478 2.33379 6.36468 2.1162 5.96636C1.89861 5.56804 1.82654 5.10637 1.91237 4.66068C1.9982 4.215 2.23658 3.81311 2.58654 3.52409C2.9365 3.23507 3.37619 3.07696 3.83007 3.07692H4.84693C5.36475 3.07751 5.86119 3.28347 6.22734 3.64962C6.59349 4.01577 6.79945 4.51221 6.80004 5.03003V5.53846C6.80004 5.70167 6.86487 5.8582 6.98028 5.9736C7.09569 6.08901 7.25221 6.15385 7.41542 6.15385Z" fill="url(#paint0_linear_154_20728)"/>
<defs>
<linearGradient id="paint0_linear_154_20728" x1="4.3385" y1="0" x2="4.3385" y2="16" gradientUnits="userSpaceOnUse">
<stop stop-color="#F8AC2D"/>
<stop offset="1" stop-color="#DE5E2F"/>
</linearGradient>
</defs>
</svg>
