<svg width="8" height="16" viewBox="0 0 8 16" fill="none" xmlns="http://www.w3.org/2000/svg">
<path d="M7.08193 6.15385C7.24514 6.15385 7.40166 6.08901 7.51707 5.9736C7.63248 5.8582 7.69731 5.70167 7.69731 5.53846V5.03003C7.69556 4.20552 7.37378 3.41389 6.7998 2.82198C6.22582 2.23006 5.44446 1.88409 4.62039 1.85698V0.615385C4.62039 0.452174 4.55555 0.295649 4.44015 0.180242C4.32474 0.064835 4.16821 0 4.005 0C3.84179 0 3.68527 0.064835 3.56986 0.180242C3.45446 0.295649 3.38962 0.452174 3.38962 0.615385V1.85698C2.65968 1.88024 1.96002 2.15417 1.40832 2.63268C0.856622 3.1112 0.486543 3.76511 0.36033 4.48443C0.234117 5.20374 0.359471 5.94458 0.715309 6.58234C1.07115 7.22009 1.63576 7.71584 2.31417 7.98622L5.23879 9.15662C5.66019 9.32522 6.00972 9.63532 6.22731 10.0336C6.4449 10.432 6.51697 10.8936 6.43114 11.3393C6.34531 11.785 6.10693 12.1869 5.75697 12.4759C5.40701 12.7649 4.96731 12.923 4.51344 12.9231H3.49657C2.97876 12.9225 2.48232 12.7165 2.11617 12.3504C1.75001 11.9842 1.54405 11.4878 1.54347 10.97V10.4615C1.54347 10.2983 1.47863 10.1418 1.36322 10.0264C1.24782 9.91099 1.09129 9.84615 0.928082 9.84615C0.764871 9.84615 0.608346 9.91099 0.492939 10.0264C0.377532 10.1418 0.312697 10.2983 0.312697 10.4615V10.97C0.314452 11.7945 0.636228 12.5861 1.21021 13.178C1.78419 13.7699 2.56555 14.1159 3.38962 14.143V15.3846C3.38962 15.5478 3.45446 15.7044 3.56986 15.8198C3.68527 15.9352 3.84179 16 4.005 16C4.16821 16 4.32474 15.9352 4.44015 15.8198C4.55555 15.7044 4.62039 15.5478 4.62039 15.3846V14.143C5.35033 14.1198 6.04999 13.8458 6.60169 13.3673C7.15339 12.8888 7.52347 12.2349 7.64968 11.5156C7.77589 10.7963 7.65054 10.0554 7.2947 9.41766C6.93886 8.77991 6.37425 8.28416 5.69584 8.01378L2.77122 6.84338C2.34982 6.67478 2.00029 6.36468 1.7827 5.96636C1.56511 5.56804 1.49304 5.10637 1.57887 4.66068C1.6647 4.215 1.90308 3.81311 2.25304 3.52409C2.603 3.23507 3.0427 3.07696 3.49657 3.07692H4.51344C5.03125 3.07751 5.52769 3.28347 5.89384 3.64962C6.26 4.01577 6.46596 4.51221 6.46654 5.03003V5.53846C6.46654 5.70167 6.53138 5.8582 6.64679 5.9736C6.76219 6.08901 6.91872 6.15385 7.08193 6.15385Z" fill="#161616"/>
</svg>
