<svg width="16" height="16" viewBox="0 0 16 16" fill="none" xmlns="http://www.w3.org/2000/svg">
<path d="M11.0819 6.15385C11.2451 6.15385 11.4017 6.08901 11.5171 5.9736C11.6325 5.8582 11.6973 5.70167 11.6973 5.53846V5.03003C11.6956 4.20552 11.3738 3.41389 10.7998 2.82198C10.2258 2.23006 9.44446 1.88409 8.62039 1.85698V0.615385C8.62039 0.452174 8.55555 0.295649 8.44015 0.180242C8.32474 0.064835 8.16821 0 8.005 0C7.84179 0 7.68527 0.064835 7.56986 0.180242C7.45446 0.295649 7.38962 0.452174 7.38962 0.615385V1.85698C6.65968 1.88024 5.96002 2.15417 5.40832 2.63268C4.85662 3.1112 4.48654 3.76511 4.36033 4.48443C4.23412 5.20374 4.35947 5.94458 4.71531 6.58234C5.07115 7.22009 5.63576 7.71584 6.31417 7.98622L9.23879 9.15662C9.66019 9.32522 10.0097 9.63532 10.2273 10.0336C10.4449 10.432 10.517 10.8936 10.4311 11.3393C10.3453 11.785 10.1069 12.1869 9.75697 12.4759C9.40701 12.7649 8.96731 12.923 8.51344 12.9231H7.49657C6.97876 12.9225 6.48232 12.7165 6.11617 12.3504C5.75001 11.9842 5.54405 11.4878 5.54347 10.97V10.4615C5.54347 10.2983 5.47863 10.1418 5.36322 10.0264C5.24782 9.91099 5.09129 9.84615 4.92808 9.84615C4.76487 9.84615 4.60835 9.91099 4.49294 10.0264C4.37753 10.1418 4.3127 10.2983 4.3127 10.4615V10.97C4.31445 11.7945 4.63623 12.5861 5.21021 13.178C5.78419 13.7699 6.56555 14.1159 7.38962 14.143V15.3846C7.38962 15.5478 7.45446 15.7044 7.56986 15.8198C7.68527 15.9352 7.84179 16 8.005 16C8.16821 16 8.32474 15.9352 8.44015 15.8198C8.55555 15.7044 8.62039 15.5478 8.62039 15.3846V14.143C9.35033 14.1198 10.05 13.8458 10.6017 13.3673C11.1534 12.8888 11.5235 12.2349 11.6497 11.5156C11.7759 10.7963 11.6505 10.0554 11.2947 9.41766C10.9389 8.77991 10.3743 8.28416 9.69584 8.01378L6.77122 6.84338C6.34982 6.67478 6.00029 6.36468 5.7827 5.96636C5.56511 5.56804 5.49304 5.10637 5.57887 4.66068C5.6647 4.215 5.90308 3.81311 6.25304 3.52409C6.603 3.23507 7.0427 3.07696 7.49657 3.07692H8.51344C9.03125 3.07751 9.52769 3.28347 9.89384 3.64962C10.26 4.01577 10.466 4.51221 10.4665 5.03003V5.53846C10.4665 5.70167 10.5314 5.8582 10.6468 5.9736C10.7622 6.08901 10.9187 6.15385 11.0819 6.15385Z" fill="url(#paint0_linear_133_18513)"/>
<defs>
<linearGradient id="paint0_linear_133_18513" x1="8.005" y1="0" x2="8.005" y2="16" gradientUnits="userSpaceOnUse">
<stop stop-color="#F8AC2D"/>
<stop offset="1" stop-color="#DE5E2F"/>
</linearGradient>
</defs>
</svg>
