<svg width="200" height="32" viewBox="0 0 200 32" fill="none" xmlns="http://www.w3.org/2000/svg">
<g clip-path="url(#clip0_100_15314)">
<path d="M72.7542 19.3356C72.2686 17.4115 70.0445 15.377 69.136 11.7181C69.136 11.7181 69.183 9.44702 69.7782 6.93938C66.4107 8.26417 65.2046 12.002 65.2046 12.002C65.2046 12.002 65.5962 7.71217 64.4528 4.63677C63.2938 1.56136 61.5395 0.520454 60.7564 0C60.7564 0 61.5552 2.16067 60.2395 4.65254C58.8455 7.30212 55.5563 10.898 54.8828 14.0838C54.2093 17.2696 54.8671 19.0991 55.1334 20.1715C55.3997 21.2597 55.8695 22.4899 55.8695 22.4899C55.8695 22.4899 52.9406 21.3228 52.3924 15.3297C50.8104 19.0044 51.061 22.6476 52.1574 25.0449C53.2538 27.4421 54.2876 29.0981 56.778 30.3913C59.2684 31.7003 62.5733 30.5333 62.354 28.0887C62.1504 26.0069 60.2082 24.1143 59.2527 22.1272C58.2816 20.0927 55.8226 13.6264 62.0407 8.53228C62.0407 8.53228 60.4744 12.6644 61.0853 15.0616C61.5865 17.0015 62.401 17.79 63.4661 19.1622C64.8757 20.9601 70.1385 24.1932 67.6167 29.0192C67.3035 27.5052 65.9878 24.0039 63.1528 23.0577C64.0143 24.4929 65.2047 26.3696 65.2673 28.1203C65.4396 30.4702 63.9986 31.2588 63.2624 31.9842C65.2516 31.7161 69.324 30.549 71.4542 27.7102C73.5843 24.9029 73.5373 22.411 72.7542 19.3356ZM69.6686 24.9345C69.6686 24.9345 69.9662 23.7201 69.4336 22.3637C68.9011 21.0074 67.9927 20.1715 67.2408 19.1779C66.489 18.1843 66.1758 17.2381 66.1601 15.4244C66.1444 13.6106 67.4445 12.0966 67.4445 12.0966C67.4445 12.0966 67.4131 12.1755 67.977 14.5254C68.5409 16.8911 70.7807 18.342 70.906 21.3386C71.0469 24.3667 69.6686 24.9345 69.6686 24.9345Z" fill="url(#paint0_linear_100_15314)"/>
<path d="M72.9737 19.4933C72.2532 16.2918 70.4989 15.8186 69.5748 12.1597C69.5748 12.1597 69.011 10.1567 69.5905 7.63332C67.429 8.59537 65.6434 11.8285 65.6434 11.8285C65.6434 11.8285 66.035 8.15377 64.8759 5.07836C63.7326 2.00296 61.994 0.946279 61.2108 0.441597C61.2108 0.441597 61.9783 3.09118 60.4433 5.45688C58.9084 7.82257 56.0107 11.3396 55.3216 14.5412C54.6481 17.727 55.3059 19.5564 55.5722 20.6289C55.8384 21.7171 56.3083 22.9473 56.3083 22.9473C56.3083 22.9473 53.1914 21.4963 52.5336 16.4968C51.3432 19.3041 51.5155 23.105 52.5962 25.5022C53.6926 27.8995 54.7264 29.5555 57.2168 30.8487C59.7072 32.1577 63.0121 30.9906 62.7928 28.5461C62.5892 26.4643 60.647 24.5717 59.6915 22.5845C58.7204 20.55 55.8854 14.415 62.1036 9.32085C62.1036 9.32085 60.9602 13.2164 61.5397 15.519C61.994 17.3327 62.6988 18.3894 63.9205 19.6195C65.1579 20.8655 70.5459 24.9818 68.0085 29.3504C67.6953 27.8364 66.4422 24.4455 63.6073 23.515C64.4687 24.9502 65.6591 26.827 65.7217 28.5776C65.7844 30.3282 65.0952 31.0695 64.3591 31.8107C66.9748 31.2272 69.7158 29.9182 71.3447 27.8837C72.9737 25.8176 73.8195 23.2469 72.9737 19.4933ZM70.123 25.376C70.123 25.376 70.4206 24.1617 69.8881 22.8053C69.3555 21.449 68.4471 20.6131 67.6953 19.6195C66.9435 18.6259 66.6302 17.6796 66.6145 15.8659C66.5989 14.0522 67.8989 12.5382 67.8989 12.5382C67.8989 12.5382 67.8676 12.6171 68.4314 14.967C68.9953 17.3327 71.2351 18.7836 71.3604 21.7802C71.5014 24.7925 70.123 25.376 70.123 25.376Z" fill="url(#paint1_linear_100_15314)"/>
<path d="M82.6689 9.54165C83.2485 9.54165 83.8123 9.54165 84.3919 9.54165C87.2738 13.0113 90.1715 16.481 93.0535 19.9507C95.9354 16.481 98.8331 13.0113 101.699 9.54165C102.263 9.54165 102.827 9.54165 103.391 9.54165C103.391 16.8753 103.391 24.1932 103.391 31.5269C101.84 31.5269 100.29 31.5269 98.7391 31.5269C98.7391 27.584 98.7391 23.6254 98.7391 19.6826C96.9379 21.9221 95.2306 24.2405 93.3824 26.4327C92.9752 27.0005 92.4426 26.1646 92.192 25.8807C90.5787 23.8147 88.9498 21.7486 87.3365 19.6826C87.3365 23.6254 87.3365 27.584 87.3365 31.5269C85.7859 31.5269 84.2352 31.5269 82.6846 31.5269C82.669 24.1932 82.6689 16.8595 82.6689 9.54165Z" fill="white"/>
<path d="M14.7701 11.7812C13.3918 10.3618 11.4026 9.66782 9.44475 9.65205C6.2965 9.6205 3.14825 9.63627 0 9.65205C0 16.9384 0 24.2247 0 31.5111C1.55063 31.5111 3.10126 31.5111 4.65189 31.5111C4.65189 29.4293 4.65189 27.3475 4.65189 25.2656C6.37481 25.2499 8.09774 25.2972 9.82066 25.2499C11.8882 25.171 13.94 24.2721 15.2714 22.6634C17.8088 19.588 17.5425 14.6042 14.7701 11.7812ZM10.1966 21.1493C8.33268 21.4332 6.43747 21.2124 4.57358 21.2755C4.57358 18.7679 4.57358 16.276 4.57358 13.7684C6.48445 13.8157 8.42666 13.5791 10.3062 13.9103C13.4075 14.9354 13.2978 20.2031 10.1966 21.1493Z" fill="white"/>
<path d="M43.3707 30.2021C41.8671 27.9941 40.3948 25.7703 38.9068 23.5781C42.055 22.0483 43.5117 18.1055 42.4153 14.825C41.6165 11.8758 38.7502 9.79399 35.7429 9.69936C32.4223 9.62051 29.1018 9.68359 25.7812 9.66782C25.7812 16.9542 25.7812 24.2405 25.7812 31.5269C27.3319 31.5269 28.8825 31.5269 30.4331 31.5269C30.4331 29.1139 30.4331 26.6851 30.4331 24.2721C31.7332 24.2721 33.0175 24.2721 34.3175 24.2721C35.8055 26.6851 37.3092 29.1139 38.7971 31.5269C40.4887 31.5269 42.1803 31.5426 43.8719 31.5111C43.7623 31.038 43.6527 30.5806 43.3707 30.2021ZM36.0405 20.2819C34.1766 20.5973 32.2657 20.3608 30.3705 20.4239C30.3705 18.2001 30.3705 15.9921 30.3705 13.7684C32.3284 13.8788 34.3332 13.516 36.2598 13.9892C39.0164 14.9197 38.8598 19.5407 36.0405 20.2819Z" fill="white"/>
<path d="M180.249 9.74667C181.941 9.71513 183.648 9.7309 185.339 9.7309C187.109 12.6171 188.707 15.5821 190.164 18.6259C191.62 15.5821 193.218 12.6013 194.972 9.7309C196.648 9.7309 198.324 9.71513 200 9.74667C199.922 10.5983 199.389 11.2923 198.982 12.002C196.899 15.4243 194.847 18.8783 192.779 22.3006C192.388 22.8053 192.497 23.4519 192.482 24.0513C192.497 26.5431 192.497 29.0192 192.482 31.5111C190.931 31.5111 189.38 31.5111 187.83 31.5111C187.83 28.8931 187.83 26.2592 187.83 23.6412C187.877 23.1207 187.752 22.6476 187.47 22.206C185.245 18.5471 183.053 14.8724 180.813 11.2292C180.515 10.7718 180.327 10.2829 180.249 9.74667Z" fill="white"/>
<path d="M159.73 9.65205C164.179 9.65205 168.611 9.65205 173.06 9.65205C173.06 11.0242 173.06 12.3963 173.06 13.7526C170.178 13.7526 167.311 13.7526 164.445 13.7526C164.429 15.2193 164.429 16.6703 164.445 18.137C167.139 18.137 169.817 18.137 172.511 18.137C172.511 19.4933 172.511 20.8497 172.511 22.2218C169.817 22.2218 167.123 22.2218 164.429 22.2218C164.429 23.8935 164.429 25.5811 164.429 27.2528C167.39 27.2528 170.35 27.2528 173.31 27.2528C173.31 28.6723 173.31 30.0917 173.31 31.4953C168.784 31.4953 164.257 31.4953 159.73 31.4953C159.73 24.2247 159.73 16.9384 159.73 9.65205Z" fill="white"/>
<path d="M135.187 9.57319C140.543 9.57319 145.916 9.57319 151.272 9.57319C151.272 10.9138 151.272 12.2701 151.272 13.6264C149.346 13.6264 147.419 13.6264 145.493 13.6264C145.493 19.588 145.493 25.5495 145.493 31.5269C143.989 31.5269 142.485 31.5269 140.982 31.5269C140.982 25.5653 140.982 19.6037 140.982 13.6264C139.04 13.6264 137.113 13.6264 135.171 13.6264C135.187 12.2701 135.187 10.9138 135.187 9.57319Z" fill="white"/>
<path d="M113.87 9.66782C118.318 9.66782 122.751 9.66782 127.199 9.66782C127.199 11.0399 127.199 12.412 127.199 13.7841C124.317 13.7841 121.45 13.7841 118.569 13.7841C118.569 15.2509 118.569 16.7018 118.569 18.1686C121.263 18.1686 123.957 18.1686 126.651 18.1686C126.651 19.5249 126.651 20.897 126.651 22.2533C123.957 22.2533 121.278 22.2533 118.584 22.2533C118.584 23.9251 118.584 25.6126 118.584 27.2844C121.544 27.2844 124.505 27.2844 127.449 27.2844C127.449 28.7038 127.449 30.1232 127.449 31.5269C122.923 31.5269 118.396 31.5269 113.87 31.5269C113.87 24.2247 113.87 16.9542 113.87 9.66782Z" fill="white"/>
</g>
<defs>
<linearGradient id="paint0_linear_100_15314" x1="57.4898" y1="13.532" x2="71.0458" y2="25.9842" gradientUnits="userSpaceOnUse">
<stop stop-color="#FFC737"/>
<stop offset="1" stop-color="#F17C34"/>
</linearGradient>
<linearGradient id="paint1_linear_100_15314" x1="72.6015" y1="25.9566" x2="56.2574" y2="13.6145" gradientUnits="userSpaceOnUse">
<stop stop-color="#DE5E2F"/>
<stop offset="0.5915" stop-color="#E77F30"/>
<stop offset="0.8434" stop-color="#F8AC2D"/>
</linearGradient>
<clipPath id="clip0_100_15314">
<rect width="200" height="32" fill="white"/>
</clipPath>
</defs>
</svg>
