<svg width="32" height="32" viewBox="0 0 32 32" fill="none" xmlns="http://www.w3.org/2000/svg">
<path d="M12.0761 28.2176L12.5756 20.7253L26.1449 8.40468C26.4224 8.12719 26.4502 7.9607 26.2282 7.9052C26.0062 7.7942 25.6732 7.8497 25.2292 8.07169L8.4132 18.7274L1.17067 16.3964C0.338193 16.1745 -0.0502954 15.8415 0.00520297 15.3975C0.0607013 14.9535 0.560186 14.5095 1.50366 14.0655L29.8911 3.16009C30.557 2.8826 31.112 2.96585 31.556 3.40983C32 3.79832 32.111 4.49205 31.889 5.49102L27.0606 28.2176C26.6722 29.827 25.7842 30.2433 24.3967 29.4663L17.0709 24.0552L13.4913 27.4684C13.3248 27.6904 13.1306 27.8846 12.9086 28.0511C12.6866 28.1621 12.4091 28.2176 12.0761 28.2176Z" fill="white"/>
</svg>
